SplineFontDB: 3.2
FontName: LucidUrdu
FullName: Lucid Urdu
FamilyName: Lucid Urdu
Weight: Regular
Copyright: Copyright (c) 2026, Shehroz Kaleem and Project Lucid https://lucid.shehroz.pk/ GitHub repo https://github.com/xehroz/lucid 
UComments: "2026-2-1: Created with FontForge (http://fontforge.org)"
Version: 1.0
ItalicAngle: 0
UnderlinePosition: -100
UnderlineWidth: 50
Ascent: 800
Descent: 200
InvalidEm: 0
LayerCount: 2
Layer: 0 0 "Back" 1
Layer: 1 0 "Fore" 0
XUID: [1021 747 -1799370872 2781913]
FSType: 0
OS2Version: 0
OS2_WeightWidthSlopeOnly: 0
OS2_UseTypoMetrics: 1
CreationTime: 1769920702
ModificationTime: 1769928436
PfmFamily: 49
TTFWeight: 400
TTFWidth: 5
LineGap: 90
VLineGap: 0
Panose: 2 0 5 9 0 0 0 0 0 0
OS2TypoAscent: 800
OS2TypoAOffset: 1
OS2TypoDescent: -200
OS2TypoDOffset: 1
OS2TypoLinegap: 0
OS2WinAscent: 800
OS2WinAOffset: 1
OS2WinDescent: -200
OS2WinDOffset: 1
HheadAscent: 0
HheadAOffset: 1
HheadDescent: 0
HheadDOffset: 1
OS2Vendor: 'PfEd'
Lookup: 1 0 0 "calt_lookup" { "latin_to_pua_subtable"  } ['calt' ('DFLT' <'dflt' > ) ]
MarkAttachClasses: 1
DEI: 91125

StartChar: uniE000
Encoding: 57344 57344 0
Width: 1000
Flags: H
LayerCount: 2
Fore
SplineSet
142.400390625 -84 m 1
 142.400390625 704.400390625 l 1
 182.799804688 704.400390625 l 1
 182.799804688 -84 l 1
 142.400390625 -84 l 1
142.400390625 -63.599609375 m 1
 182.400390625 -63.599609375 l 1
 182.400390625 684.400390625 l 1
 142.400390625 684.400390625 l 1
 142.400390625 -63.599609375 l 1
119.599609375 -59.2001953125 m 1
 119.599609375 -18.7998046875 l 1
 846.400390625 -18.7998046875 l 1
 846.400390625 -59.2001953125 l 1
 119.599609375 -59.2001953125 l 1
826 -58.7998046875 m 1
 826 -18.7998046875 l 1
 139.599609375 -18.7998046875 l 1
 139.599609375 -58.7998046875 l 1
 826 -58.7998046875 l 1
119.200195312 639.599609375 m 1
 119.200195312 680 l 1
 846 680 l 5
 846 639.599609375 l 5
 119.200195312 639.599609375 l 1
825.599609375 640 m 5
 825.599609375 680 l 5
 139.200195312 680 l 1
 139.200195312 640 l 1
 825.599609375 640 l 5
119.599609375 289.599609375 m 1
 119.599609375 330 l 1
 846.400390625 330 l 1
 846.400390625 289.599609375 l 1
 119.599609375 289.599609375 l 1
826 290 m 1
 826 330 l 1
 139.599609375 330 l 1
 139.599609375 290 l 1
 826 290 l 1
-20 -220.400390625 m 1
 -20 820 l 1
 1020.40039062 820 l 5
 1020.40039062 -220.400390625 l 1
 -20 -220.400390625 l 1
1000 820 m 4
 0 820 0 820 0 820 c 2
 -11.0380859375 820 -20 811.038085938 -20 800 c 2
 -20 -200 l 2
 -20 -211.038085938 -11.0380859375 -220 0 -220 c 2
 1000 -220 l 2
 1011.03808594 -220 1020 -211.038085938 1020 -200 c 2
 1020 800 l 6
 1020 811.038085938 1011.03808594 820 1000 820 c 4
20 780 m 1
 980 780 l 5
 980 -180 l 1
 20 -180 l 1
 20 780 l 1
EndSplineSet
EndChar

StartChar: uniE001
Encoding: 57345 57345 1
Width: 1000
Flags: H
LayerCount: 2
Fore
SplineSet
79.2001953125 600.400390625 m 5
 79.2001953125 640.799804688 l 5
 920.799804688 640.799804688 l 1
 920.799804688 600.400390625 l 1
 79.2001953125 600.400390625 l 5
99.2001953125 640.799804688 m 5
 99.2001953125 600.799804688 l 5
 900.400390625 600.799804688 l 1
 900.400390625 640.799804688 l 1
 99.2001953125 640.799804688 l 5
79.2001953125 -48 m 1
 79.2001953125 -7.599609375 l 1
 920.799804688 -7.599609375 l 1
 920.799804688 -48 l 1
 79.2001953125 -48 l 1
99.2001953125 -7.599609375 m 1
 99.2001953125 -47.599609375 l 1
 900.400390625 -47.599609375 l 1
 900.400390625 -7.599609375 l 1
 99.2001953125 -7.599609375 l 1
79.2001953125 -48.400390625 m 1
 79.2001953125 640.799804688 l 5
 920.799804688 640.799804688 l 1
 920.799804688 -48.400390625 l 1
 79.2001953125 -48.400390625 l 1
86.626953125 -12.4501953125 m 1
 111.772460938 -43.5498046875 l 1
 912.973632812 605.25 l 1
 887.827148438 636.349609375 l 1
 86.626953125 -12.4501953125 l 1
-20 -220.400390625 m 1
 -20 820 l 5
 1020.40039062 820 l 1
 1020.40039062 -220.400390625 l 1
 -20 -220.400390625 l 1
1000 820 m 0
 0 820 0 820 0 820 c 6
 -11.0380859375 820 -20 811.038085938 -20 800 c 6
 -20 -200 l 2
 -20 -211.038085938 -11.0380859375 -220 0 -220 c 2
 1000 -220 l 2
 1011.03808594 -220 1020 -211.038085938 1020 -200 c 2
 1020 800 l 2
 1020 811.038085938 1011.03808594 820 1000 820 c 0
20 780 m 5
 980 780 l 1
 980 -180 l 1
 20 -180 l 1
 20 780 l 5
EndSplineSet
EndChar

StartChar: uniE002
Encoding: 57346 57346 2
Width: 1000
Flags: H
LayerCount: 2
Fore
SplineSet
131.599609375 -140.400390625 m 1
 131.599609375 773.200195312 l 1
 172 773.200195312 l 1
 172 -140.400390625 l 1
 131.599609375 -140.400390625 l 1
131.599609375 -120 m 1
 171.599609375 -120 l 1
 171.599609375 753.200195312 l 1
 131.599609375 753.200195312 l 1
 131.599609375 -120 l 1
817.200195312 -140.400390625 m 1
 817.200195312 773.200195312 l 1
 857.599609375 773.200195312 l 1
 857.599609375 -140.400390625 l 1
 817.200195312 -140.400390625 l 1
817.200195312 -120 m 1
 857.200195312 -120 l 1
 857.200195312 753.200195312 l 1
 817.200195312 753.200195312 l 1
 817.200195312 -120 l 1
131.200195312 -140.400390625 m 1
 131.200195312 773.200195312 l 1
 857.200195312 773.200195312 l 1
 857.200195312 -140.400390625 l 1
 131.200195312 -140.400390625 l 1
821.057617188 -132.33203125 m 1
 852.541992188 -107.66796875 l 1
 167.341796875 765.532226562 l 1
 135.857421875 740.869140625 l 1
 821.057617188 -132.33203125 l 1
131.599609375 -140.400390625 m 1
 131.599609375 773.599609375 l 1
 857.200195312 773.599609375 l 1
 857.200195312 -140.400390625 l 1
 131.599609375 -140.400390625 l 1
135.857421875 -107.66796875 m 1
 167.321289062 -132.358398438 l 1
 852.541992188 740.869140625 l 1
 821.078125 765.55859375 l 1
 135.857421875 -107.66796875 l 1
-20 -220.400390625 m 1
 -20 820 l 1
 1020.40039062 820 l 1
 1020.40039062 -220.400390625 l 1
 -20 -220.400390625 l 1
1000 820 m 0
 0 820 0 820 0 820 c 2
 -11.0380859375 820 -20 811.038085938 -20 800 c 2
 -20 -200 l 2
 -20 -211.038085938 -11.0380859375 -220 0 -220 c 2
 1000 -220 l 2
 1011.03808594 -220 1020 -211.038085938 1020 -200 c 2
 1020 800 l 2
 1020 811.038085938 1011.03808594 820 1000 820 c 0
20 780 m 1
 980 780 l 1
 980 -180 l 1
 20 -180 l 1
 20 780 l 1
EndSplineSet
EndChar

StartChar: uniE003
Encoding: 57347 57347 3
Width: 1000
Flags: H
LayerCount: 2
Fore
SplineSet
74.400390625 619.599609375 m 1
 74.400390625 660 l 1
 916.400390625 660 l 1
 916.400390625 619.599609375 l 1
 74.400390625 619.599609375 l 1
94.400390625 660 m 1
 94.400390625 620 l 1
 896 620 l 1
 896 660 l 1
 94.400390625 660 l 1
74.400390625 -28.7998046875 m 1
 74.400390625 11.599609375 l 1
 916.400390625 11.599609375 l 1
 916.400390625 -28.7998046875 l 1
 74.400390625 -28.7998046875 l 1
94.400390625 11.599609375 m 1
 94.400390625 -28.400390625 l 1
 896 -28.400390625 l 1
 896 11.599609375 l 1
 94.400390625 11.599609375 l 1
74.400390625 -29.2001953125 m 1
 74.400390625 660 l 1
 916.400390625 660 l 1
 916.400390625 -29.2001953125 l 1
 74.400390625 -29.2001953125 l 1
81.8310546875 6.7529296875 m 1
 106.969726562 -24.3525390625 l 1
 908.569335938 624.447265625 l 1
 883.430664062 655.552734375 l 1
 81.8310546875 6.7529296875 l 1
234.799804688 19.599609375 m 1
 234.799804688 609.200195312 l 1
 756.799804688 609.200195312 l 1
 756.799804688 19.599609375 l 1
 234.799804688 19.599609375 l 1
274.799804688 314.400390625 m 0
 274.799804688 454.6796875 373.57421875 569.200195312 495.599609375 569.200195312 c 0
 533.883789062 569.200195312 571.305664062 557.672851562 605.095703125 535.635742188 c 0
 638.690429688 513.7265625 666.77734375 481.71875 686.099609375 443.075195312 c 0
 749.848632812 316.780273438 708.240234375 160.833984375 605.094726562 93.564453125 c 0
 571.305664062 71.52734375 533.883789062 60 495.599609375 60 c 0
 457.31640625 60 419.89453125 71.52734375 386.104492188 93.564453125 c 0
 352.509765625 115.474609375 324.421875 147.48046875 305.100585938 186.125 c 0
 285.333007812 225.286132812 274.799804688 269.555664062 274.799804688 314.400390625 c 0
721.866210938 168.208007812 m 0
 794.51953125 312.143554688 747.631835938 490.428710938 626.904296875 569.165039062 c 0
 497.857421875 653.326171875 338.2421875 598.80859375 269.333984375 460.9921875 c 0
 196.798828125 317.291992188 243.379882812 138.89453125 364.294921875 60.03515625 c 0
 493.350585938 -24.130859375 652.96484375 30.40234375 721.866210938 168.208007812 c 0
-20 -220.400390625 m 1
 -20 820 l 1
 1020.40039062 820 l 1
 1020.40039062 -220.400390625 l 1
 -20 -220.400390625 l 1
1000 820 m 0
 0 820 0 820 0 820 c 2
 -11.0380859375 820 -20 811.038085938 -20 800 c 2
 -20 -200 l 2
 -20 -211.038085938 -11.0380859375 -220 0 -220 c 2
 1000 -220 l 2
 1011.03808594 -220 1020 -211.038085938 1020 -200 c 2
 1020 800 l 2
 1020 811.038085938 1011.03808594 820 1000 820 c 0
20 780 m 1
 980 780 l 1
 980 -180 l 1
 20 -180 l 1
 20 780 l 1
EndSplineSet
EndChar

StartChar: uniE004
Encoding: 57348 57348 4
Width: 1000
Flags: H
LayerCount: 2
Fore
SplineSet
57.2001953125 662.400390625 m 1
 57.2001953125 702.799804688 l 1
 888.400390625 702.799804688 l 1
 888.400390625 662.400390625 l 1
 57.2001953125 662.400390625 l 1
77.2001953125 702.799804688 m 1
 77.2001953125 662.799804688 l 1
 868 662.799804688 l 1
 868 702.799804688 l 1
 77.2001953125 702.799804688 l 1
83.599609375 -132.400390625 m 1
 83.599609375 729.200195312 l 1
 124 729.200195312 l 1
 124 -132.400390625 l 1
 83.599609375 -132.400390625 l 1
83.599609375 -112 m 1
 123.599609375 -112 l 1
 123.599609375 709.200195312 l 1
 83.599609375 709.200195312 l 1
 83.599609375 -112 l 1
110 -159.200195312 m 1
 110 702.799804688 l 1
 941.599609375 702.799804688 l 1
 941.599609375 -159.200195312 l 1
 110 -159.200195312 l 1
144.405273438 696.66796875 m 1
 115.594726562 668.931640625 l 1
 906.794921875 -152.66796875 l 1
 935.60546875 -124.931640625 l 1
 144.405273438 696.66796875 l 1
-20 -220.400390625 m 1
 -20 820 l 1
 1020.40039062 820 l 1
 1020.40039062 -220.400390625 l 1
 -20 -220.400390625 l 1
0 -220 m 0
 1000 -220 1000 -220 1000 -220 c 2
 1011.03808594 -220 1020 -211.038085938 1020 -200 c 2
 1020 800 l 2
 1020 811.038085938 1011.03808594 820 1000 820 c 2
 0 820 l 2
 -11.0380859375 820 -20 811.038085938 -20 800 c 2
 -20 -200 l 2
 -20 -211.038085938 -11.0380859375 -220 0 -220 c 0
980 -180 m 1
 20 -180 l 1
 20 780 l 1
 980 780 l 1
 980 -180 l 1
EndSplineSet
EndChar

StartChar: uniE005
Encoding: 57349 57349 5
Width: 1000
Flags: H
LayerCount: 2
Fore
SplineSet
85.2001953125 -171.599609375 m 1
 85.2001953125 690 l 1
 125.599609375 690 l 1
 125.599609375 -171.599609375 l 1
 85.2001953125 -171.599609375 l 1
85.2001953125 -151.200195312 m 1
 125.200195312 -151.200195312 l 1
 125.200195312 670 l 1
 85.2001953125 670 l 1
 85.2001953125 -151.200195312 l 1
60 -144.799804688 m 1
 60 -104.400390625 l 1
 891.200195312 -104.400390625 l 1
 891.200195312 -144.799804688 l 1
 60 -144.799804688 l 1
870.799804688 -144.400390625 m 1
 870.799804688 -104.400390625 l 1
 80 -104.400390625 l 1
 80 -144.400390625 l 1
 870.799804688 -144.400390625 l 1
57.2001953125 -148.400390625 m 1
 57.2001953125 713.599609375 l 1
 888.799804688 713.599609375 l 1
 888.799804688 -148.400390625 l 1
 57.2001953125 -148.400390625 l 1
882.805664062 679.731445312 m 1
 853.999023438 707.471679688 l 1
 62.794921875 -114.131835938 l 1
 91.6015625 -141.872070312 l 1
 882.805664062 679.731445312 l 1
-20 -220.400390625 m 1
 -20 820 l 1
 1020.40039062 820 l 1
 1020.40039062 -220.400390625 l 1
 -20 -220.400390625 l 1
0 -220 m 0
 1000 -220 1000 -220 1000 -220 c 2
 1011.03808594 -220 1020 -211.038085938 1020 -200 c 2
 1020 800 l 2
 1020 811.038085938 1011.03808594 820 1000 820 c 2
 0 820 l 2
 -11.0380859375 820 -20 811.038085938 -20 800 c 2
 -20 -200 l 2
 -20 -211.038085938 -11.0380859375 -220 0 -220 c 0
980 -180 m 1
 20 -180 l 1
 20 780 l 1
 980 780 l 1
 980 -180 l 1
EndSplineSet
EndChar

StartChar: uniE006
Encoding: 57350 57350 6
Width: 1000
Flags: H
LayerCount: 2
Fore
SplineSet
102.400390625 -132.400390625 m 1
 102.400390625 729.200195312 l 1
 142.799804688 729.200195312 l 1
 142.799804688 -132.400390625 l 1
 102.400390625 -132.400390625 l 1
102.400390625 -112 m 1
 142.400390625 -112 l 1
 142.400390625 709.200195312 l 1
 102.400390625 709.200195312 l 1
 102.400390625 -112 l 1
76.400390625 -105.200195312 m 1
 76.400390625 -64.7998046875 l 1
 907.599609375 -64.7998046875 l 1
 907.599609375 -105.200195312 l 1
 76.400390625 -105.200195312 l 1
887.200195312 -104.799804688 m 1
 887.200195312 -64.7998046875 l 1
 96.400390625 -64.7998046875 l 1
 96.400390625 -104.799804688 l 1
 887.200195312 -104.799804688 l 1
-20 -220.400390625 m 1
 -20 820 l 1
 1020.40039062 820 l 1
 1020.40039062 -220.400390625 l 1
 -20 -220.400390625 l 1
0 -220 m 0
 1000 -220 1000 -220 1000 -220 c 2
 1011.03808594 -220 1020 -211.038085938 1020 -200 c 2
 1020 800 l 2
 1020 811.038085938 1011.03808594 820 1000 820 c 2
 0 820 l 2
 -11.0380859375 820 -20 811.038085938 -20 800 c 2
 -20 -200 l 2
 -20 -211.038085938 -11.0380859375 -220 0 -220 c 0
980 -180 m 1
 20 -180 l 1
 20 780 l 1
 980 780 l 1
 980 -180 l 1
EndSplineSet
EndChar

StartChar: uniE007
Encoding: 57351 57351 7
Width: 1000
Flags: H
LayerCount: 2
Fore
SplineSet
816 -114.400390625 m 1
 816 674 l 1
 856.400390625 674 l 1
 856.400390625 -114.400390625 l 1
 816 -114.400390625 l 1
816 -94 m 1
 856 -94 l 1
 856 654 l 1
 816 654 l 1
 816 -94 l 1
152 -89.599609375 m 1
 152 -49.2001953125 l 1
 878.799804688 -49.2001953125 l 1
 878.799804688 -89.599609375 l 1
 152 -89.599609375 l 1
172 -49.2001953125 m 1
 172 -89.2001953125 l 1
 858.400390625 -89.2001953125 l 1
 858.400390625 -49.2001953125 l 1
 172 -49.2001953125 l 1
152.400390625 608.799804688 m 1
 152.400390625 649.200195312 l 1
 879.200195312 649.200195312 l 1
 879.200195312 608.799804688 l 1
 152.400390625 608.799804688 l 1
172.400390625 649.200195312 m 1
 172.400390625 609.200195312 l 1
 858.799804688 609.200195312 l 1
 858.799804688 649.200195312 l 1
 172.400390625 649.200195312 l 1
152 259.200195312 m 1
 152 299.599609375 l 1
 878.799804688 299.599609375 l 1
 878.799804688 259.200195312 l 1
 152 259.200195312 l 1
172 299.599609375 m 1
 172 259.599609375 l 1
 858.400390625 259.599609375 l 1
 858.400390625 299.599609375 l 1
 172 299.599609375 l 1
-20 -220.400390625 m 1
 -20 820 l 1
 1020.40039062 820 l 1
 1020.40039062 -220.400390625 l 1
 -20 -220.400390625 l 1
1000 820 m 0
 0 820 0 820 0 820 c 2
 -11.0380859375 820 -20 811.038085938 -20 800 c 2
 -20 -200 l 2
 -20 -211.038085938 -11.0380859375 -220 0 -220 c 2
 1000 -220 l 2
 1011.03808594 -220 1020 -211.038085938 1020 -200 c 2
 1020 800 l 2
 1020 811.038085938 1011.03808594 820 1000 820 c 0
20 780 m 1
 980 780 l 1
 980 -180 l 1
 20 -180 l 1
 20 780 l 1
EndSplineSet
EndChar

StartChar: uniE008
Encoding: 57352 57352 8
Width: 1000
Flags: H
LayerCount: 2
Fore
SplineSet
155.200195312 -131.599609375 m 1
 155.200195312 710.400390625 l 1
 195.599609375 710.400390625 l 1
 195.599609375 -131.599609375 l 1
 155.200195312 -131.599609375 l 1
155.200195312 -111.200195312 m 1
 195.200195312 -111.200195312 l 1
 195.200195312 690.400390625 l 1
 155.200195312 690.400390625 l 1
 155.200195312 -111.200195312 l 1
803.200195312 -131.599609375 m 1
 803.200195312 710.400390625 l 1
 843.599609375 710.400390625 l 1
 843.599609375 -131.599609375 l 1
 803.200195312 -131.599609375 l 1
803.200195312 -111.200195312 m 1
 843.200195312 -111.200195312 l 1
 843.200195312 690.400390625 l 1
 803.200195312 690.400390625 l 1
 803.200195312 -111.200195312 l 1
154.799804688 -131.599609375 m 1
 154.799804688 710.400390625 l 1
 844.400390625 710.400390625 l 1
 844.400390625 -131.599609375 l 1
 154.799804688 -131.599609375 l 1
808.447265625 -123.768554688 m 1
 839.552734375 -98.630859375 l 1
 190.752929688 702.969726562 l 1
 159.647460938 677.831054688 l 1
 808.447265625 -123.768554688 l 1
-20 -220.400390625 m 1
 -20 820 l 1
 1020.40039062 820 l 1
 1020.40039062 -220.400390625 l 1
 -20 -220.400390625 l 1
1020 -200 m 0
 1020 800 1020 800 1020 800 c 2
 1020 811.038085938 1011.03808594 820 1000 820 c 2
 0 820 l 2
 -11.0380859375 820 -20 811.038085938 -20 800 c 2
 -20 -200 l 2
 -20 -211.038085938 -11.0380859375 -220 0 -220 c 2
 1000 -220 l 2
 1011.03808594 -220 1020 -211.038085938 1020 -200 c 0
980 780 m 1
 980 -180 l 1
 20 -180 l 1
 20 780 l 1
 980 780 l 1
EndSplineSet
EndChar

StartChar: uniE009
Encoding: 57353 57353 9
Width: 1000
Flags: H
LayerCount: 2
Fore
SplineSet
821.200195312 -101.200195312 m 1
 821.200195312 687.200195312 l 1
 861.599609375 687.200195312 l 1
 861.599609375 -101.200195312 l 1
 821.200195312 -101.200195312 l 1
861.200195312 667.200195312 m 1
 821.200195312 667.200195312 l 1
 821.200195312 -80.7998046875 l 1
 861.200195312 -80.7998046875 l 1
 861.200195312 667.200195312 l 1
156.799804688 622.799804688 m 1
 156.799804688 663.200195312 l 1
 884 663.200195312 l 1
 884 622.799804688 l 1
 156.799804688 622.799804688 l 1
176.799804688 663.200195312 m 1
 176.799804688 623.200195312 l 1
 863.599609375 623.200195312 l 1
 863.599609375 663.200195312 l 1
 176.799804688 663.200195312 l 1
157.200195312 -76 m 1
 157.200195312 -35.599609375 l 1
 884.400390625 -35.599609375 l 1
 884.400390625 -76 l 1
 157.200195312 -76 l 1
177.200195312 -35.599609375 m 1
 177.200195312 -75.599609375 l 1
 864 -75.599609375 l 1
 864 -35.599609375 l 1
 177.200195312 -35.599609375 l 1
-20 -220.400390625 m 1
 -20 820 l 1
 1020.40039062 820 l 1
 1020.40039062 -220.400390625 l 1
 -20 -220.400390625 l 1
1000 820 m 0
 0 820 0 820 0 820 c 2
 -11.0380859375 820 -20 811.038085938 -20 800 c 2
 -20 -200 l 2
 -20 -211.038085938 -11.0380859375 -220 0 -220 c 2
 1000 -220 l 2
 1011.03808594 -220 1020 -211.038085938 1020 -200 c 2
 1020 800 l 2
 1020 811.038085938 1011.03808594 820 1000 820 c 0
20 780 m 1
 980 780 l 1
 980 -180 l 1
 20 -180 l 1
 20 780 l 1
EndSplineSet
EndChar

StartChar: uniE00A
Encoding: 57354 57354 10
Width: 1000
Flags: H
LayerCount: 2
Fore
SplineSet
119.599609375 -112.400390625 m 1
 119.599609375 -72 l 1
 846.400390625 -72 l 1
 846.400390625 -112.400390625 l 1
 119.599609375 -112.400390625 l 1
826 -112 m 1
 826 -72 l 1
 139.599609375 -72 l 1
 139.599609375 -112 l 1
 826 -112 l 1
784 -137.200195312 m 1
 784 651.200195312 l 1
 824.400390625 651.200195312 l 1
 824.400390625 -137.200195312 l 1
 784 -137.200195312 l 1
824 631.200195312 m 1
 784 631.200195312 l 1
 784 -116.799804688 l 1
 824 -116.799804688 l 1
 824 631.200195312 l 1
142.799804688 -138 m 1
 142.799804688 650.400390625 l 1
 183.200195312 650.400390625 l 1
 183.200195312 -138 l 1
 142.799804688 -138 l 1
182.799804688 630.400390625 m 1
 142.799804688 630.400390625 l 1
 142.799804688 -117.599609375 l 1
 182.799804688 -117.599609375 l 1
 182.799804688 630.400390625 l 1
463.599609375 -137.200195312 m 1
 463.599609375 651.200195312 l 1
 504 651.200195312 l 1
 504 -137.200195312 l 1
 463.599609375 -137.200195312 l 1
503.599609375 631.200195312 m 1
 463.599609375 631.200195312 l 1
 463.599609375 -116.799804688 l 1
 503.599609375 -116.799804688 l 1
 503.599609375 631.200195312 l 1
-20 -220.400390625 m 1
 -20 820 l 1
 1020.40039062 820 l 1
 1020.40039062 -220.400390625 l 1
 -20 -220.400390625 l 1
1000 820 m 0
 0 820 0 820 0 820 c 2
 -11.0380859375 820 -20 811.038085938 -20 800 c 2
 -20 -200 l 2
 -20 -211.038085938 -11.0380859375 -220 0 -220 c 2
 1000 -220 l 2
 1011.03808594 -220 1020 -211.038085938 1020 -200 c 2
 1020 800 l 2
 1020 811.038085938 1011.03808594 820 1000 820 c 0
20 780 m 1
 980 780 l 1
 980 -180 l 1
 20 -180 l 1
 20 780 l 1
EndSplineSet
EndChar

StartChar: uniE00B
Encoding: 57355 57355 11
Width: 1000
Flags: H
LayerCount: 2
Fore
SplineSet
177.200195312 -160.400390625 m 1
 177.200195312 753.200195312 l 1
 217.599609375 753.200195312 l 1
 217.599609375 -160.400390625 l 1
 177.200195312 -160.400390625 l 1
177.200195312 -140 m 1
 217.200195312 -140 l 1
 217.200195312 733.200195312 l 1
 177.200195312 733.200195312 l 1
 177.200195312 -140 l 1
772.799804688 -160.400390625 m 1
 772.799804688 753.200195312 l 1
 813.200195312 753.200195312 l 1
 813.200195312 -160.400390625 l 1
 772.799804688 -160.400390625 l 1
772.799804688 -140 m 1
 812.799804688 -140 l 1
 812.799804688 733.200195312 l 1
 772.799804688 733.200195312 l 1
 772.799804688 -140 l 1
177.200195312 -160.400390625 m 1
 177.200195312 753.200195312 l 1
 813.200195312 753.200195312 l 1
 813.200195312 -160.400390625 l 1
 177.200195312 -160.400390625 l 1
776.291015625 -151.288085938 m 1
 809.333984375 -128.75 l 1
 213.708007812 744.48828125 l 1
 180.666015625 721.950195312 l 1
 776.291015625 -151.288085938 l 1
236.400390625 0 m 1
 236.400390625 589.200195312 l 1
 757.599609375 589.200195312 l 1
 757.599609375 0 l 1
 236.400390625 0 l 1
496.799804688 549.200195312 m 0
 618.209960938 549.200195312 717.200195312 434.649414062 717.200195312 294.799804688 c 0
 717.200195312 156.24609375 619.59765625 40.400390625 496.799804688 40.400390625 c 0
 375.397460938 40.400390625 276.400390625 154.939453125 276.400390625 294.799804688 c 0
 276.400390625 433.3671875 374.01171875 549.200195312 496.799804688 549.200195312 c 0
496.799804688 0.400390625 m 0
 641.270507812 0.400390625 757.200195312 133.323242188 757.200195312 294.799804688 c 0
 757.200195312 345.91796875 745.341796875 396.46875 722.666015625 440.993164062 c 0
 700.388671875 485.518554688 667.772460938 523.033203125 627.788085938 549.109375 c 0
 588.264648438 575.169921875 542.927734375 589.200195312 496.799804688 589.200195312 c 0
 352.329101562 589.200195312 236.400390625 456.278320312 236.400390625 294.799804688 c 0
 236.400390625 243.681640625 248.2578125 193.131835938 270.93359375 148.606445312 c 0
 293.2109375 104.081054688 325.827148438 66.5673828125 365.810546875 40.4912109375 c 0
 405.3359375 14.4306640625 450.670898438 0.400390625 496.799804688 0.400390625 c 0
-20 -220.400390625 m 1
 -20 820 l 1
 1020.40039062 820 l 1
 1020.40039062 -220.400390625 l 1
 -20 -220.400390625 l 1
1000 820 m 0
 0 820 0 820 0 820 c 2
 -11.0380859375 820 -20 811.038085938 -20 800 c 2
 -20 -200 l 2
 -20 -211.038085938 -11.0380859375 -220 0 -220 c 2
 1000 -220 l 2
 1011.03808594 -220 1020 -211.038085938 1020 -200 c 2
 1020 800 l 2
 1020 811.038085938 1011.03808594 820 1000 820 c 0
20 780 m 1
 980 780 l 1
 980 -180 l 1
 20 -180 l 1
 20 780 l 1
EndSplineSet
EndChar

StartChar: uniE00C
Encoding: 57356 57356 12
Width: 1000
Flags: H
LayerCount: 2
Fore
SplineSet
99.2001953125 -136 m 1
 99.2001953125 725.599609375 l 1
 139.599609375 725.599609375 l 1
 139.599609375 -136 l 1
 99.2001953125 -136 l 1
99.2001953125 -115.599609375 m 1
 139.200195312 -115.599609375 l 1
 139.200195312 705.599609375 l 1
 99.2001953125 705.599609375 l 1
 99.2001953125 -115.599609375 l 1
73.2001953125 -109.200195312 m 1
 73.2001953125 -68.7998046875 l 1
 904.400390625 -68.7998046875 l 1
 904.400390625 -109.200195312 l 1
 73.2001953125 -109.200195312 l 1
884 -108.799804688 m 1
 884 -68.7998046875 l 1
 93.2001953125 -68.7998046875 l 1
 93.2001953125 -108.799804688 l 1
 884 -108.799804688 l 1
73.2001953125 658 m 1
 73.2001953125 698.400390625 l 1
 904.400390625 698.400390625 l 1
 904.400390625 658 l 1
 73.2001953125 658 l 1
884 658.400390625 m 1
 884 698.400390625 l 1
 93.2001953125 698.400390625 l 1
 93.2001953125 658.400390625 l 1
 884 658.400390625 l 1
215.599609375 -4 m 1
 215.599609375 640 l 1
 809.599609375 640 l 1
 809.599609375 -4 l 1
 215.599609375 -4 l 1
512.400390625 600 m 0
 653.801757812 600 769.200195312 473.967773438 769.200195312 318 c 0
 769.200195312 163.583007812 654.65234375 36.400390625 512.400390625 36.400390625 c 0
 370.030273438 36.400390625 255.599609375 163.711914062 255.599609375 318 c 0
 255.599609375 473.78515625 370.852539062 600 512.400390625 600 c 0
512.400390625 -3.599609375 m 0
 675.8359375 -3.599609375 809.200195312 140.099609375 809.200195312 318.400390625 c 0
 809.200195312 495.171875 676.676757812 640 512.400390625 640 c 0
 348.698242188 640 215.599609375 495.984375 215.599609375 318 c 0
 215.599609375 141.2421875 348.109375 -3.599609375 512.400390625 -3.599609375 c 0
-20 -220.400390625 m 1
 -20 820 l 1
 1020.40039062 820 l 1
 1020.40039062 -220.400390625 l 1
 -20 -220.400390625 l 1
0 -220 m 0
 1000 -220 1000 -220 1000 -220 c 2
 1011.03808594 -220 1020 -211.038085938 1020 -200 c 2
 1020 800 l 2
 1020 811.038085938 1011.03808594 820 1000 820 c 2
 0 820 l 2
 -11.0380859375 820 -20 811.038085938 -20 800 c 2
 -20 -200 l 2
 -20 -211.038085938 -11.0380859375 -220 0 -220 c 0
980 -180 m 1
 20 -180 l 1
 20 780 l 1
 980 780 l 1
 980 -180 l 1
EndSplineSet
EndChar

StartChar: uniE00D
Encoding: 57357 57357 13
Width: 1000
Flags: H
LayerCount: 2
Fore
SplineSet
794 -132 m 1
 794 710 l 1
 834.400390625 710 l 1
 834.400390625 -132 l 1
 794 -132 l 1
794 -111.599609375 m 1
 834 -111.599609375 l 1
 834 690 l 1
 794 690 l 1
 794 -111.599609375 l 1
146 -132 m 1
 146 710 l 1
 186.400390625 710 l 1
 186.400390625 -132 l 1
 146 -132 l 1
146 -111.599609375 m 1
 186 -111.599609375 l 1
 186 690 l 1
 146 690 l 1
 146 -111.599609375 l 1
210.400390625 14.7998046875 m 1
 210.400390625 559.200195312 l 1
 775.200195312 559.200195312 l 1
 775.200195312 14.7998046875 l 1
 210.400390625 14.7998046875 l 1
492.400390625 519.200195312 m 0
 627.653320312 519.200195312 734.799804688 414.174804688 734.799804688 287.200195312 c 0
 734.799804688 159.576171875 626.788085938 55.2001953125 492.799804688 55.2001953125 c 0
 357.541015625 55.2001953125 250.400390625 160.2265625 250.400390625 287.200195312 c 0
 250.400390625 414.825195312 358.413085938 519.200195312 492.400390625 519.200195312 c 0
774.799804688 287.200195312 m 0
 774.799804688 436.068359375 649.915039062 559.200195312 492.400390625 559.200195312 c 0
 336.334960938 559.200195312 210.400390625 436.904296875 210.400390625 287.200195312 c 0
 210.400390625 138.329101562 335.284179688 15.2001953125 492.799804688 15.2001953125 c 0
 648.877929688 15.2001953125 774.799804688 137.508789062 774.799804688 287.200195312 c 0
-20 -220.400390625 m 1
 -20 820 l 1
 1020.40039062 820 l 1
 1020.40039062 -220.400390625 l 1
 -20 -220.400390625 l 1
1020 -200 m 0
 1020 800 1020 800 1020 800 c 2
 1020 811.038085938 1011.03808594 820 1000 820 c 2
 0 820 l 2
 -11.0380859375 820 -20 811.038085938 -20 800 c 2
 -20 -200 l 2
 -20 -211.038085938 -11.0380859375 -220 0 -220 c 2
 1000 -220 l 2
 1011.03808594 -220 1020 -211.038085938 1020 -200 c 0
980 780 m 1
 980 -180 l 1
 20 -180 l 1
 20 780 l 1
 980 780 l 1
EndSplineSet
EndChar

StartChar: uniE00E
Encoding: 57358 57358 14
Width: 1000
Flags: H
LayerCount: 2
Fore
SplineSet
91.599609375 -92.7998046875 m 1
 91.599609375 695.200195312 l 1
 933.599609375 695.200195312 l 1
 933.599609375 -92.7998046875 l 1
 91.599609375 -92.7998046875 l 1
913.200195312 -92.400390625 m 2
 924.23828125 -92.400390625 933.200195312 -83.4384765625 933.200195312 -72.400390625 c 2
 933.200195312 675.200195312 l 2
 933.200195312 686.23828125 924.23828125 695.200195312 913.200195312 695.200195312 c 2
 111.599609375 695.200195312 l 2
 100.561523438 695.200195312 91.599609375 686.23828125 91.599609375 675.200195312 c 2
 91.599609375 -72.400390625 l 2
 91.599609375 -83.4384765625 100.561523438 -92.400390625 111.599609375 -92.400390625 c 2
 913.200195312 -92.400390625 l 2
893.200195312 -52.400390625 m 1
 131.599609375 -52.400390625 l 1
 131.599609375 655.200195312 l 1
 893.200195312 655.200195312 l 1
 893.200195312 -52.400390625 l 1
91.599609375 -68.400390625 m 1
 91.599609375 720.400390625 l 1
 933.200195312 720.400390625 l 1
 933.200195312 -68.400390625 l 1
 91.599609375 -68.400390625 l 1
125.245117188 715.016601562 m 1
 97.9462890625 685.791015625 l 1
 899.153320312 -62.6162109375 l 1
 926.453125 -33.390625 l 1
 125.245117188 715.016601562 l 1
91.599609375 -68.7998046875 m 1
 91.599609375 720.400390625 l 1
 933.200195312 720.400390625 l 1
 933.200195312 -68.7998046875 l 1
 91.599609375 -68.7998046875 l 1
926.4453125 685.784179688 m 1
 899.153320312 715.016601562 l 1
 97.9541015625 -33.3837890625 l 1
 125.245117188 -62.6162109375 l 1
 926.4453125 685.784179688 l 1
-20 -220.400390625 m 1
 -20 820 l 1
 1020.40039062 820 l 1
 1020.40039062 -220.400390625 l 1
 -20 -220.400390625 l 1
1000 820 m 0
 0 820 0 820 0 820 c 2
 -11.0380859375 820 -20 811.038085938 -20 800 c 2
 -20 -200 l 2
 -20 -211.038085938 -11.0380859375 -220 0 -220 c 2
 1000 -220 l 2
 1011.03808594 -220 1020 -211.038085938 1020 -200 c 2
 1020 800 l 2
 1020 811.038085938 1011.03808594 820 1000 820 c 0
20 780 m 1
 980 780 l 1
 980 -180 l 1
 20 -180 l 1
 20 780 l 1
EndSplineSet
EndChar

StartChar: uniE00F
Encoding: 57359 57359 15
Width: 1000
Flags: H
LayerCount: 2
Fore
SplineSet
840.799804688 -130 m 1
 840.799804688 731.599609375 l 1
 881.200195312 731.599609375 l 1
 881.200195312 -130 l 1
 840.799804688 -130 l 1
880.799804688 711.599609375 m 1
 840.799804688 711.599609375 l 1
 840.799804688 -109.599609375 l 1
 880.799804688 -109.599609375 l 1
 880.799804688 711.599609375 l 1
76.400390625 664.400390625 m 1
 76.400390625 704.799804688 l 1
 907.599609375 704.799804688 l 1
 907.599609375 664.400390625 l 1
 76.400390625 664.400390625 l 1
96.400390625 704.799804688 m 1
 96.400390625 664.799804688 l 1
 887.200195312 664.799804688 l 1
 887.200195312 704.799804688 l 1
 96.400390625 704.799804688 l 1
-20 -220.400390625 m 1
 -20 820 l 1
 1020.40039062 820 l 1
 1020.40039062 -220.400390625 l 1
 -20 -220.400390625 l 1
0 -220 m 0
 1000 -220 1000 -220 1000 -220 c 2
 1011.03808594 -220 1020 -211.038085938 1020 -200 c 2
 1020 800 l 2
 1020 811.038085938 1011.03808594 820 1000 820 c 2
 0 820 l 2
 -11.0380859375 820 -20 811.038085938 -20 800 c 2
 -20 -200 l 2
 -20 -211.038085938 -11.0380859375 -220 0 -220 c 0
980 -180 m 1
 20 -180 l 1
 20 780 l 1
 980 780 l 1
 980 -180 l 1
EndSplineSet
EndChar

StartChar: uniE010
Encoding: 57360 57360 16
Width: 1000
Flags: H
LayerCount: 2
Fore
SplineSet
151.599609375 641.200195312 m 1
 151.599609375 681.599609375 l 1
 878.400390625 681.599609375 l 1
 878.400390625 641.200195312 l 1
 151.599609375 641.200195312 l 1
171.599609375 681.599609375 m 1
 171.599609375 641.599609375 l 1
 858 641.599609375 l 1
 858 681.599609375 l 1
 171.599609375 681.599609375 l 1
173.599609375 -82 m 1
 173.599609375 706 l 1
 214 706 l 1
 214 -82 l 1
 173.599609375 -82 l 1
173.599609375 -61.599609375 m 1
 213.599609375 -61.599609375 l 1
 213.599609375 686 l 1
 173.599609375 686 l 1
 173.599609375 -61.599609375 l 1
815.200195312 -81.599609375 m 1
 815.200195312 706.400390625 l 1
 855.599609375 706.400390625 l 1
 855.599609375 -81.599609375 l 1
 815.200195312 -81.599609375 l 1
815.200195312 -61.2001953125 m 1
 855.200195312 -61.2001953125 l 1
 855.200195312 686.400390625 l 1
 815.200195312 686.400390625 l 1
 815.200195312 -61.2001953125 l 1
494.400390625 -82 m 1
 494.400390625 706 l 1
 534.799804688 706 l 1
 534.799804688 -82 l 1
 494.400390625 -82 l 1
494.400390625 -61.599609375 m 1
 534.400390625 -61.599609375 l 1
 534.400390625 686 l 1
 494.400390625 686 l 1
 494.400390625 -61.599609375 l 1
-20 -220.400390625 m 1
 -20 820 l 1
 1020.40039062 820 l 1
 1020.40039062 -220.400390625 l 1
 -20 -220.400390625 l 1
1000 820 m 0
 0 820 0 820 0 820 c 2
 -11.0380859375 820 -20 811.038085938 -20 800 c 2
 -20 -200 l 2
 -20 -211.038085938 -11.0380859375 -220 0 -220 c 2
 1000 -220 l 2
 1011.03808594 -220 1020 -211.038085938 1020 -200 c 2
 1020 800 l 2
 1020 811.038085938 1011.03808594 820 1000 820 c 0
20 780 m 1
 980 780 l 1
 980 -180 l 1
 20 -180 l 1
 20 780 l 1
EndSplineSet
EndChar

StartChar: uniE011
Encoding: 57361 57361 17
Width: 1000
Flags: H
LayerCount: 2
Fore
SplineSet
74.400390625 662.400390625 m 1
 74.400390625 702.799804688 l 1
 905.599609375 702.799804688 l 1
 905.599609375 662.400390625 l 1
 74.400390625 662.400390625 l 1
94.400390625 702.799804688 m 1
 94.400390625 662.799804688 l 1
 885.200195312 662.799804688 l 1
 885.200195312 702.799804688 l 1
 94.400390625 702.799804688 l 1
100 -132.400390625 m 1
 100 729.200195312 l 1
 140.400390625 729.200195312 l 1
 140.400390625 -132.400390625 l 1
 100 -132.400390625 l 1
100 -112 m 1
 140 -112 l 1
 140 709.200195312 l 1
 100 709.200195312 l 1
 100 -112 l 1
-20 -220.400390625 m 1
 -20 820 l 1
 1020.40039062 820 l 1
 1020.40039062 -220.400390625 l 1
 -20 -220.400390625 l 1
0 -220 m 0
 1000 -220 1000 -220 1000 -220 c 2
 1011.03808594 -220 1020 -211.038085938 1020 -200 c 2
 1020 800 l 2
 1020 811.038085938 1011.03808594 820 1000 820 c 2
 0 820 l 2
 -11.0380859375 820 -20 811.038085938 -20 800 c 2
 -20 -200 l 2
 -20 -211.038085938 -11.0380859375 -220 0 -220 c 0
980 -180 m 1
 20 -180 l 1
 20 780 l 1
 980 780 l 1
 980 -180 l 1
EndSplineSet
EndChar

StartChar: uniE012
Encoding: 57362 57362 18
Width: 1000
Flags: H
LayerCount: 2
Fore
SplineSet
74 -110 m 1
 74 678.799804688 l 1
 915.599609375 678.799804688 l 1
 915.599609375 -110 l 1
 74 -110 l 1
895.200195312 -109.599609375 m 2
 906.23828125 -109.599609375 915.200195312 -100.637695312 915.200195312 -89.599609375 c 2
 915.200195312 658.799804688 l 2
 915.200195312 669.837890625 906.23828125 678.799804688 895.200195312 678.799804688 c 2
 94 678.799804688 l 2
 82.9619140625 678.799804688 74 669.837890625 74 658.799804688 c 2
 74 -89.599609375 l 2
 74 -100.637695312 82.9619140625 -109.599609375 94 -109.599609375 c 2
 895.200195312 -109.599609375 l 2
875.200195312 -69.599609375 m 1
 114 -69.599609375 l 1
 114 638.799804688 l 1
 875.200195312 638.799804688 l 1
 875.200195312 -69.599609375 l 1
235.200195312 -12 m 1
 235.200195312 577.599609375 l 1
 756.799804688 577.599609375 l 1
 756.799804688 -12 l 1
 235.200195312 -12 l 1
495.599609375 537.599609375 m 0
 618.03515625 537.599609375 716.400390625 422.685546875 716.400390625 282.799804688 c 0
 716.400390625 195.359375 676.036132812 108.23046875 605.094726562 61.96484375 c 0
 571.819335938 40.0244140625 533.872070312 28.400390625 496 28.400390625 c 0
 372.659179688 28.400390625 275.200195312 144.580078125 275.200195312 282.799804688 c 0
 275.200195312 328.068359375 285.701171875 372.25 305.465820312 411.408203125 c 0
 324.7890625 450.052734375 352.909179688 482.125976562 386.50390625 504.03515625 c 0
 419.780273438 525.975585938 457.727539062 537.599609375 495.599609375 537.599609375 c 0
721.866210938 136.607421875 m 0
 794.551757812 280.60546875 747.547851562 458.8828125 626.98828125 537.509765625 c 0
 587.458984375 563.572265625 542.095703125 577.599609375 495.599609375 577.599609375 c 0
 449.471679688 577.599609375 404.219726562 563.624023438 364.6953125 537.564453125 c 0
 324.690429688 511.474609375 292.01171875 473.947265625 269.733398438 429.392578125 c 0
 197.16796875 285.625976562 243.866210938 107.23828125 364.611328125 28.4912109375 c 0
 404.140625 2.427734375 449.50390625 -11.599609375 496 -11.599609375 c 0
 542.127929688 -11.599609375 587.379882812 2.3759765625 626.905273438 28.435546875 c 0
 666.909179688 54.5263671875 699.587890625 92.0517578125 721.866210938 136.607421875 c 0
-20 -220.400390625 m 1
 -20 820 l 1
 1020.40039062 820 l 1
 1020.40039062 -220.400390625 l 1
 -20 -220.400390625 l 1
1000 820 m 0
 0 820 0 820 0 820 c 2
 -11.0380859375 820 -20 811.038085938 -20 800 c 2
 -20 -200 l 2
 -20 -211.038085938 -11.0380859375 -220 0 -220 c 2
 1000 -220 l 2
 1011.03808594 -220 1020 -211.038085938 1020 -200 c 2
 1020 800 l 2
 1020 811.038085938 1011.03808594 820 1000 820 c 0
20 780 m 1
 980 780 l 1
 980 -180 l 1
 20 -180 l 1
 20 780 l 1
EndSplineSet
EndChar

StartChar: uniE013
Encoding: 57363 57363 19
Width: 1000
Flags: H
LayerCount: 2
Fore
SplineSet
138.400390625 646.400390625 m 1
 138.400390625 686.799804688 l 1
 865.599609375 686.799804688 l 1
 865.599609375 646.400390625 l 1
 138.400390625 646.400390625 l 1
845.200195312 646.799804688 m 1
 845.200195312 686.799804688 l 1
 158.400390625 686.799804688 l 1
 158.400390625 646.799804688 l 1
 845.200195312 646.799804688 l 1
802.400390625 -77.2001953125 m 1
 802.400390625 711.200195312 l 1
 842.799804688 711.200195312 l 1
 842.799804688 -77.2001953125 l 1
 802.400390625 -77.2001953125 l 1
802.400390625 -56.7998046875 m 1
 842.400390625 -56.7998046875 l 1
 842.400390625 691.200195312 l 1
 802.400390625 691.200195312 l 1
 802.400390625 -56.7998046875 l 1
161.200195312 -76.7998046875 m 1
 161.200195312 711.599609375 l 1
 201.599609375 711.599609375 l 1
 201.599609375 -76.7998046875 l 1
 161.200195312 -76.7998046875 l 1
161.200195312 -56.400390625 m 1
 201.200195312 -56.400390625 l 1
 201.200195312 691.599609375 l 1
 161.200195312 691.599609375 l 1
 161.200195312 -56.400390625 l 1
262 -6.400390625 m 1
 262 584 l 1
 783.200195312 584 l 1
 783.200195312 -6.400390625 l 1
 262 -6.400390625 l 1
522.400390625 543.599609375 m 0
 643.686523438 543.599609375 742.799804688 429.3046875 742.799804688 288.799804688 c 0
 742.799804688 221.704101562 720.0859375 175.841796875 712.466796875 160.45703125 c 0
 693.143554688 121.44140625 665.051757812 89.4267578125 631.810546875 67.509765625 c 0
 598.068359375 45.5029296875 560.265625 34 522.400390625 34 c 0
 401.09765625 34 302 148.31640625 302 288.799804688 c 0
 302 355.889648438 324.705078125 401.73828125 332.334960938 417.143554688 c 0
 351.65625 456.158203125 379.748046875 488.173828125 412.98828125 510.090820312 c 0
 446.731445312 532.096679688 484.53515625 543.599609375 522.400390625 543.599609375 c 0
522.400390625 583.599609375 m 0
 476.265625 583.599609375 430.868164062 569.502929688 391.01171875 543.509765625 c 0
 351.481445312 517.446289062 318.793945312 479.8984375 296.516601562 434.958984375 c 0
 273.87109375 390.482421875 262 340.2890625 262 288.799804688 c 0
 262 237.268554688 273.865234375 187.1171875 296.5 142.275390625 c 0
 318.77734375 97.71875 351.40625 60.1806640625 391.411132812 34.0908203125 c 0
 430.935546875 8.0302734375 476.272460938 -6 522.400390625 -6 c 0
 568.53515625 -6 613.931640625 8.0966796875 653.788085938 34.0908203125 c 0
 693.318359375 60.154296875 726.005859375 97.701171875 748.284179688 142.640625 c 0
 770.928710938 187.118164062 782.799804688 237.311523438 782.799804688 288.799804688 c 0
 782.799804688 340.33203125 770.93359375 390.484375 748.30078125 435.325195312 c 0
 726.021484375 479.880859375 693.393554688 517.418945312 653.388671875 543.509765625 c 0
 613.864257812 569.569335938 568.528320312 583.599609375 522.400390625 583.599609375 c 0
-20 -220.400390625 m 1
 -20 820 l 1
 1020.40039062 820 l 1
 1020.40039062 -220.400390625 l 1
 -20 -220.400390625 l 1
1000 820 m 0
 0 820 0 820 0 820 c 2
 -11.0380859375 820 -20 811.038085938 -20 800 c 2
 -20 -200 l 2
 -20 -211.038085938 -11.0380859375 -220 0 -220 c 2
 1000 -220 l 2
 1011.03808594 -220 1020 -211.038085938 1020 -200 c 2
 1020 800 l 2
 1020 811.038085938 1011.03808594 820 1000 820 c 0
20 780 m 1
 980 780 l 1
 980 -180 l 1
 20 -180 l 1
 20 780 l 1
EndSplineSet
EndChar

StartChar: uniE014
Encoding: 57364 57364 20
Width: 1000
Flags: H
LayerCount: 2
Fore
SplineSet
803.200195312 -115.200195312 m 1
 803.200195312 726.400390625 l 1
 843.599609375 726.400390625 l 1
 843.599609375 -115.200195312 l 1
 803.200195312 -115.200195312 l 1
803.200195312 -94.7998046875 m 1
 843.200195312 -94.7998046875 l 1
 843.200195312 706.400390625 l 1
 803.200195312 706.400390625 l 1
 803.200195312 -94.7998046875 l 1
155.200195312 -115.200195312 m 1
 155.200195312 726.400390625 l 1
 195.599609375 726.400390625 l 1
 195.599609375 -115.200195312 l 1
 155.200195312 -115.200195312 l 1
155.200195312 -94.7998046875 m 1
 195.200195312 -94.7998046875 l 1
 195.200195312 706.400390625 l 1
 155.200195312 706.400390625 l 1
 155.200195312 -94.7998046875 l 1
155.200195312 -115.200195312 m 1
 155.200195312 726.799804688 l 1
 844.400390625 726.799804688 l 1
 844.400390625 -115.200195312 l 1
 155.200195312 -115.200195312 l 1
159.650390625 -82.2265625 m 1
 190.731445312 -107.395507812 l 1
 839.549804688 693.827148438 l 1
 808.46875 718.99609375 l 1
 159.650390625 -82.2265625 l 1
-20 -220.400390625 m 1
 -20 820 l 1
 1020.40039062 820 l 1
 1020.40039062 -220.400390625 l 1
 -20 -220.400390625 l 1
1020 -200 m 0
 1020 800 1020 800 1020 800 c 2
 1020 811.038085938 1011.03808594 820 1000 820 c 2
 0 820 l 2
 -11.0380859375 820 -20 811.038085938 -20 800 c 2
 -20 -200 l 2
 -20 -211.038085938 -11.0380859375 -220 0 -220 c 2
 1000 -220 l 2
 1011.03808594 -220 1020 -211.038085938 1020 -200 c 0
980 780 m 1
 980 -180 l 1
 20 -180 l 1
 20 780 l 1
 980 780 l 1
EndSplineSet
EndChar

StartChar: uniE015
Encoding: 57365 57365 21
Width: 1000
Flags: H
LayerCount: 2
Fore
SplineSet
849.200195312 -141.200195312 m 1
 849.200195312 720.400390625 l 1
 889.599609375 720.400390625 l 1
 889.599609375 -141.200195312 l 1
 849.200195312 -141.200195312 l 1
849.200195312 -120.799804688 m 1
 889.200195312 -120.799804688 l 1
 889.200195312 700.400390625 l 1
 849.200195312 700.400390625 l 1
 849.200195312 -120.799804688 l 1
84.7998046875 -114.400390625 m 1
 84.7998046875 -74 l 1
 916 -74 l 1
 916 -114.400390625 l 1
 84.7998046875 -114.400390625 l 1
104.799804688 -74 m 1
 104.799804688 -114 l 1
 895.599609375 -114 l 1
 895.599609375 -74 l 1
 104.799804688 -74 l 1
87.2001953125 -118.400390625 m 1
 87.2001953125 743.599609375 l 1
 918.799804688 743.599609375 l 1
 918.799804688 -118.400390625 l 1
 87.2001953125 -118.400390625 l 1
121.60546875 737.467773438 m 1
 92.794921875 709.731445312 l 1
 883.995117188 -111.868164062 l 1
 912.805664062 -84.1318359375 l 1
 121.60546875 737.467773438 l 1
-20 -220.400390625 m 1
 -20 820 l 1
 1020.40039062 820 l 1
 1020.40039062 -220.400390625 l 1
 -20 -220.400390625 l 1
0 -220 m 0
 1000 -220 1000 -220 1000 -220 c 2
 1011.03808594 -220 1020 -211.038085938 1020 -200 c 2
 1020 800 l 2
 1020 811.038085938 1011.03808594 820 1000 820 c 2
 0 820 l 2
 -11.0380859375 820 -20 811.038085938 -20 800 c 2
 -20 -200 l 2
 -20 -211.038085938 -11.0380859375 -220 0 -220 c 0
980 -180 m 1
 20 -180 l 1
 20 780 l 1
 980 780 l 1
 980 -180 l 1
EndSplineSet
EndChar

StartChar: uniE016
Encoding: 57366 57366 22
Width: 1000
Flags: H
LayerCount: 2
Fore
SplineSet
801.599609375 -80.7998046875 m 1
 801.599609375 707.200195312 l 1
 842 707.200195312 l 1
 842 -80.7998046875 l 1
 801.599609375 -80.7998046875 l 1
841.599609375 687.200195312 m 1
 801.599609375 687.200195312 l 1
 801.599609375 -60.400390625 l 1
 841.599609375 -60.400390625 l 1
 841.599609375 687.200195312 l 1
137.599609375 642.799804688 m 1
 137.599609375 683.200195312 l 1
 864.799804688 683.200195312 l 1
 864.799804688 642.799804688 l 1
 137.599609375 642.799804688 l 1
157.599609375 683.200195312 m 1
 157.599609375 643.200195312 l 1
 844.400390625 643.200195312 l 1
 844.400390625 683.200195312 l 1
 157.599609375 683.200195312 l 1
137.599609375 -55.599609375 m 1
 137.599609375 -15.2001953125 l 1
 864.799804688 -15.2001953125 l 1
 864.799804688 -55.599609375 l 1
 137.599609375 -55.599609375 l 1
157.599609375 -15.2001953125 m 1
 157.599609375 -55.2001953125 l 1
 844.400390625 -55.2001953125 l 1
 844.400390625 -15.2001953125 l 1
 157.599609375 -15.2001953125 l 1
262 -10 m 1
 262 579.200195312 l 1
 783.200195312 579.200195312 l 1
 783.200195312 -10 l 1
 262 -10 l 1
522.400390625 539.200195312 m 0
 643.802734375 539.200195312 742.799804688 424.66015625 742.799804688 284.799804688 c 0
 742.799804688 146.234375 645.188476562 30.400390625 522.400390625 30.400390625 c 0
 400.998046875 30.400390625 302 144.940429688 302 284.799804688 c 0
 302 423.353515625 399.6015625 539.200195312 522.400390625 539.200195312 c 0
522.400390625 -9.599609375 m 0
 666.87109375 -9.599609375 782.799804688 123.322265625 782.799804688 284.799804688 c 0
 782.799804688 335.918945312 770.94140625 386.469726562 748.266601562 430.993164062 c 0
 725.98828125 475.518554688 693.373046875 513.033203125 653.388671875 539.109375 c 0
 613.864257812 565.169921875 568.528320312 579.200195312 522.400390625 579.200195312 c 0
 377.928710938 579.200195312 262 446.276367188 262 284.799804688 c 0
 262 233.681640625 273.857421875 183.131835938 296.534179688 138.606445312 c 0
 318.811523438 94.0810546875 351.426757812 56.568359375 391.411132812 30.4912109375 c 0
 430.935546875 4.4306640625 476.272460938 -9.599609375 522.400390625 -9.599609375 c 0
-20 -220.400390625 m 1
 -20 820 l 1
 1020.40039062 820 l 1
 1020.40039062 -220.400390625 l 1
 -20 -220.400390625 l 1
1000 820 m 0
 0 820 0 820 0 820 c 2
 -11.0380859375 820 -20 811.038085938 -20 800 c 2
 -20 -200 l 2
 -20 -211.038085938 -11.0380859375 -220 0 -220 c 2
 1000 -220 l 2
 1011.03808594 -220 1020 -211.038085938 1020 -200 c 2
 1020 800 l 2
 1020 811.038085938 1011.03808594 820 1000 820 c 0
20 780 m 1
 980 780 l 1
 980 -180 l 1
 20 -180 l 1
 20 780 l 1
EndSplineSet
EndChar

StartChar: uniE017
Encoding: 57367 57367 23
Width: 1000
Flags: H
LayerCount: 2
Fore
SplineSet
70.7998046875 -79.599609375 m 1
 70.7998046875 709.599609375 l 1
 912.400390625 709.599609375 l 1
 912.400390625 -79.599609375 l 1
 70.7998046875 -79.599609375 l 1
892 -79.2001953125 m 2
 903.038085938 -79.2001953125 912 -70.23828125 912 -59.2001953125 c 2
 912 689.599609375 l 2
 912 700.637695312 903.038085938 709.599609375 892 709.599609375 c 2
 90.7998046875 709.599609375 l 2
 79.76171875 709.599609375 70.7998046875 700.637695312 70.7998046875 689.599609375 c 2
 70.7998046875 -59.2001953125 l 2
 70.7998046875 -70.23828125 79.76171875 -79.2001953125 90.7998046875 -79.2001953125 c 2
 892 -79.2001953125 l 2
872 -39.2001953125 m 1
 110.799804688 -39.2001953125 l 1
 110.799804688 669.599609375 l 1
 872 669.599609375 l 1
 872 -39.2001953125 l 1
73.599609375 -53.599609375 m 1
 73.599609375 735.200195312 l 1
 916 735.200195312 l 1
 916 -53.599609375 l 1
 73.599609375 -53.599609375 l 1
909.2421875 700.581054688 m 1
 881.95703125 729.8203125 l 1
 80.357421875 -18.580078125 l 1
 107.642578125 -47.8193359375 l 1
 909.2421875 700.581054688 l 1
-20 -220.400390625 m 1
 -20 820 l 1
 1020.40039062 820 l 1
 1020.40039062 -220.400390625 l 1
 -20 -220.400390625 l 1
1000 820 m 0
 0 820 0 820 0 820 c 2
 -11.0380859375 820 -20 811.038085938 -20 800 c 2
 -20 -200 l 2
 -20 -211.038085938 -11.0380859375 -220 0 -220 c 2
 1000 -220 l 2
 1011.03808594 -220 1020 -211.038085938 1020 -200 c 2
 1020 800 l 2
 1020 811.038085938 1011.03808594 820 1000 820 c 0
20 780 m 1
 980 780 l 1
 980 -180 l 1
 20 -180 l 1
 20 780 l 1
EndSplineSet
EndChar

StartChar: uniE018
Encoding: 57368 57368 24
Width: 1000
Flags: H
LayerCount: 2
Fore
SplineSet
79.2001953125 618.400390625 m 1
 79.2001953125 658.799804688 l 1
 920.799804688 658.799804688 l 1
 920.799804688 618.400390625 l 1
 79.2001953125 618.400390625 l 1
900.400390625 618.799804688 m 1
 900.400390625 658.799804688 l 1
 99.2001953125 658.799804688 l 1
 99.2001953125 618.799804688 l 1
 900.400390625 618.799804688 l 1
79.2001953125 -30.400390625 m 1
 79.2001953125 10 l 1
 920.799804688 10 l 1
 920.799804688 -30.400390625 l 1
 79.2001953125 -30.400390625 l 1
900.400390625 -30 m 1
 900.400390625 10 l 1
 99.2001953125 10 l 1
 99.2001953125 -30 l 1
 900.400390625 -30 l 1
78.7998046875 -30.400390625 m 1
 78.7998046875 658.799804688 l 1
 920.799804688 658.799804688 l 1
 920.799804688 -30.400390625 l 1
 78.7998046875 -30.400390625 l 1
887.827148438 -25.5498046875 m 1
 912.99609375 5.53125 l 1
 111.772460938 654.349609375 l 1
 86.603515625 623.268554688 l 1
 887.827148438 -25.5498046875 l 1
-20 -220.400390625 m 1
 -20 820 l 1
 1020.40039062 820 l 1
 1020.40039062 -220.400390625 l 1
 -20 -220.400390625 l 1
1000 820 m 0
 0 820 0 820 0 820 c 2
 -11.0380859375 820 -20 811.038085938 -20 800 c 2
 -20 -200 l 2
 -20 -211.038085938 -11.0380859375 -220 0 -220 c 2
 1000 -220 l 2
 1011.03808594 -220 1020 -211.038085938 1020 -200 c 2
 1020 800 l 2
 1020 811.038085938 1011.03808594 820 1000 820 c 0
20 780 m 1
 980 780 l 1
 980 -180 l 1
 20 -180 l 1
 20 780 l 1
EndSplineSet
EndChar

StartChar: uniE019
Encoding: 57369 57369 25
Width: 1000
Flags: H
LayerCount: 2
Fore
SplineSet
806.400390625 -112.400390625 m 1
 806.400390625 729.599609375 l 1
 846.799804688 729.599609375 l 1
 846.799804688 -112.400390625 l 1
 806.400390625 -112.400390625 l 1
806.400390625 -92 m 1
 846.400390625 -92 l 1
 846.400390625 709.599609375 l 1
 806.400390625 709.599609375 l 1
 806.400390625 -92 l 1
158 -112.400390625 m 1
 158 729.599609375 l 1
 198.400390625 729.599609375 l 1
 198.400390625 -112.400390625 l 1
 158 -112.400390625 l 1
158 -92 m 1
 198 -92 l 1
 198 709.599609375 l 1
 158 709.599609375 l 1
 158 -92 l 1
158 -112.400390625 m 1
 158 729.599609375 l 1
 847.599609375 729.599609375 l 1
 847.599609375 -112.400390625 l 1
 158 -112.400390625 l 1
162.451171875 -79.4267578125 m 1
 193.530273438 -104.596679688 l 1
 842.749023438 697.026367188 l 1
 811.669921875 722.196289062 l 1
 162.451171875 -79.4267578125 l 1
222.400390625 34.7998046875 m 1
 222.400390625 579.200195312 l 1
 786.799804688 579.200195312 l 1
 786.799804688 34.7998046875 l 1
 222.400390625 34.7998046875 l 1
504.400390625 539.200195312 m 0
 638.275390625 539.200195312 746.400390625 434.930664062 746.400390625 307.200195312 c 0
 746.400390625 180.405273438 639.474609375 75.2001953125 504.400390625 75.2001953125 c 0
 370.51953125 75.2001953125 262.400390625 179.471679688 262.400390625 307.200195312 c 0
 262.400390625 434.004882812 369.336914062 539.200195312 504.400390625 539.200195312 c 0
786.400390625 307.200195312 m 0
 786.400390625 456.7890625 660.58203125 579.200195312 504.400390625 579.200195312 c 0
 347.0390625 579.200195312 222.400390625 455.891601562 222.400390625 307.200195312 c 0
 222.400390625 157.607421875 348.217773438 35.2001953125 504.400390625 35.2001953125 c 0
 661.774414062 35.2001953125 786.400390625 158.521484375 786.400390625 307.200195312 c 0
-20 -220.400390625 m 1
 -20 820 l 1
 1020.40039062 820 l 1
 1020.40039062 -220.400390625 l 1
 -20 -220.400390625 l 1
1020 -200 m 0
 1020 800 1020 800 1020 800 c 2
 1020 811.038085938 1011.03808594 820 1000 820 c 2
 0 820 l 2
 -11.0380859375 820 -20 811.038085938 -20 800 c 2
 -20 -200 l 2
 -20 -211.038085938 -11.0380859375 -220 0 -220 c 2
 1000 -220 l 2
 1011.03808594 -220 1020 -211.038085938 1020 -200 c 0
980 780 m 1
 980 -180 l 1
 20 -180 l 1
 20 780 l 1
 980 780 l 1
EndSplineSet
EndChar

StartChar: uniE01A
Encoding: 57370 57370 26
Width: 1000
Flags: H
LayerCount: 2
Fore
SplineSet
74 -102 m 1
 74 686.799804688 l 1
 915.599609375 686.799804688 l 1
 915.599609375 -102 l 1
 74 -102 l 1
895.200195312 -101.599609375 m 2
 906.23828125 -101.599609375 915.200195312 -92.6376953125 915.200195312 -81.599609375 c 2
 915.200195312 666.799804688 l 2
 915.200195312 677.837890625 906.23828125 686.799804688 895.200195312 686.799804688 c 2
 94 686.799804688 l 2
 82.9619140625 686.799804688 74 677.837890625 74 666.799804688 c 2
 74 -81.599609375 l 2
 74 -92.6376953125 82.9619140625 -101.599609375 94 -101.599609375 c 2
 895.200195312 -101.599609375 l 2
875.200195312 -61.599609375 m 1
 114 -61.599609375 l 1
 114 646.799804688 l 1
 875.200195312 646.799804688 l 1
 875.200195312 -61.599609375 l 1
74.400390625 -77.599609375 m 1
 74.400390625 711.200195312 l 1
 916.400390625 711.200195312 l 1
 916.400390625 -77.599609375 l 1
 74.400390625 -77.599609375 l 1
108.04296875 705.8203125 m 1
 80.75 676.587890625 l 1
 882.357421875 -71.8193359375 l 1
 909.650390625 -42.587890625 l 1
 108.04296875 705.8203125 l 1
-20 -220.400390625 m 1
 -20 820 l 1
 1020.40039062 820 l 1
 1020.40039062 -220.400390625 l 1
 -20 -220.400390625 l 1
1000 820 m 0
 0 820 0 820 0 820 c 2
 -11.0380859375 820 -20 811.038085938 -20 800 c 2
 -20 -200 l 2
 -20 -211.038085938 -11.0380859375 -220 0 -220 c 2
 1000 -220 l 2
 1011.03808594 -220 1020 -211.038085938 1020 -200 c 2
 1020 800 l 2
 1020 811.038085938 1011.03808594 820 1000 820 c 0
20 780 m 1
 980 780 l 1
 980 -180 l 1
 20 -180 l 1
 20 780 l 1
EndSplineSet
EndChar

StartChar: uniE01B
Encoding: 57371 57371 27
Width: 1000
Flags: H
LayerCount: 2
Fore
SplineSet
81.2001953125 602 m 1
 81.2001953125 642.400390625 l 1
 923.200195312 642.400390625 l 1
 923.200195312 602 l 1
 81.2001953125 602 l 1
902.799804688 602.400390625 m 1
 902.799804688 642.400390625 l 1
 101.200195312 642.400390625 l 1
 101.200195312 602.400390625 l 1
 902.799804688 602.400390625 l 1
81.2001953125 -47.2001953125 m 1
 81.2001953125 -6.7998046875 l 1
 923.200195312 -6.7998046875 l 1
 923.200195312 -47.2001953125 l 1
 81.2001953125 -47.2001953125 l 1
902.799804688 -46.7998046875 m 1
 902.799804688 -6.7998046875 l 1
 101.200195312 -6.7998046875 l 1
 101.200195312 -46.7998046875 l 1
 902.799804688 -46.7998046875 l 1
80.7998046875 -47.2001953125 m 1
 80.7998046875 642.400390625 l 1
 923.200195312 642.400390625 l 1
 923.200195312 -47.2001953125 l 1
 80.7998046875 -47.2001953125 l 1
890.225585938 -42.3486328125 m 1
 915.396484375 -11.26953125 l 1
 113.7734375 637.94921875 l 1
 88.6025390625 606.870117188 l 1
 890.225585938 -42.3486328125 l 1
242 0.7998046875 m 1
 242 592 l 1
 764.799804688 592 l 1
 764.799804688 0.7998046875 l 1
 242 0.7998046875 l 1
503.200195312 552 m 0
 625.469726562 552 724.400390625 436.8359375 724.400390625 296.799804688 c 0
 724.400390625 157.87890625 626.653320312 41.599609375 503.200195312 41.599609375 c 0
 380.932617188 41.599609375 282 156.763671875 282 296.799804688 c 0
 282 435.71484375 379.73828125 552 503.200195312 552 c 0
503.200195312 1.599609375 m 0
 648.793945312 1.599609375 764.400390625 135.493164062 764.400390625 296.799804688 c 0
 764.400390625 459.159179688 647.618164062 592 503.200195312 592 c 0
 357.602539062 592 242 458.106445312 242 296.799804688 c 0
 242 134.44140625 358.783203125 1.599609375 503.200195312 1.599609375 c 0
-20 -220.400390625 m 1
 -20 820 l 1
 1020.40039062 820 l 1
 1020.40039062 -220.400390625 l 1
 -20 -220.400390625 l 1
1000 820 m 0
 0 820 0 820 0 820 c 2
 -11.0380859375 820 -20 811.038085938 -20 800 c 2
 -20 -200 l 2
 -20 -211.038085938 -11.0380859375 -220 0 -220 c 2
 1000 -220 l 2
 1011.03808594 -220 1020 -211.038085938 1020 -200 c 2
 1020 800 l 2
 1020 811.038085938 1011.03808594 820 1000 820 c 0
20 780 m 1
 980 780 l 1
 980 -180 l 1
 20 -180 l 1
 20 780 l 1
EndSplineSet
EndChar

StartChar: uniE01C
Encoding: 57372 57372 28
Width: 1000
Flags: H
LayerCount: 2
Fore
SplineSet
70.400390625 -32.7998046875 m 1
 70.400390625 7.599609375 l 1
 912 7.599609375 l 1
 912 -32.7998046875 l 1
 70.400390625 -32.7998046875 l 1
90.400390625 7.599609375 m 1
 90.400390625 -32.400390625 l 1
 891.599609375 -32.400390625 l 1
 891.599609375 7.599609375 l 1
 90.400390625 7.599609375 l 1
70.400390625 616 m 1
 70.400390625 656.400390625 l 1
 912 656.400390625 l 1
 912 616 l 1
 70.400390625 616 l 1
90.400390625 656.400390625 m 1
 90.400390625 616.400390625 l 1
 891.599609375 616.400390625 l 1
 891.599609375 656.400390625 l 1
 90.400390625 656.400390625 l 1
216 27.2001953125 m 1
 216 592.400390625 l 1
 760.799804688 592.400390625 l 1
 760.799804688 27.2001953125 l 1
 216 27.2001953125 l 1
720.400390625 310 m 0
 720.400390625 175.37890625 615.794921875 67.599609375 488.400390625 67.599609375 c 0
 359.633789062 67.599609375 256 176.1875 256 310 c 0
 256 444.635742188 360.616210938 552.400390625 488 552.400390625 c 0
 616.78515625 552.400390625 720.400390625 443.791992188 720.400390625 310 c 0
488.400390625 27.599609375 m 0
 637.852539062 27.599609375 760.400390625 153.241210938 760.400390625 310 c 0
 760.400390625 465.995117188 638.779296875 592.400390625 488 592.400390625 c 0
 338.556640625 592.400390625 216 466.771484375 216 310 c 0
 216 153.979492188 337.643554688 27.599609375 488.400390625 27.599609375 c 0
-20 -220.400390625 m 1
 -20 820 l 1
 1020.40039062 820 l 1
 1020.40039062 -220.400390625 l 1
 -20 -220.400390625 l 1
1000 820 m 0
 0 820 0 820 0 820 c 2
 -11.0380859375 820 -20 811.038085938 -20 800 c 2
 -20 -200 l 2
 -20 -211.038085938 -11.0380859375 -220 0 -220 c 2
 1000 -220 l 2
 1011.03808594 -220 1020 -211.038085938 1020 -200 c 2
 1020 800 l 2
 1020 811.038085938 1011.03808594 820 1000 820 c 0
20 780 m 1
 980 780 l 1
 980 -180 l 1
 20 -180 l 1
 20 780 l 1
EndSplineSet
EndChar

StartChar: uniE01D
Encoding: 57373 57373 29
Width: 1000
Flags: H
LayerCount: 2
Fore
SplineSet
124.799804688 660.400390625 m 1
 124.799804688 700.799804688 l 1
 956 700.799804688 l 1
 956 660.400390625 l 1
 124.799804688 660.400390625 l 1
935.599609375 660.799804688 m 1
 935.599609375 700.799804688 l 1
 144.799804688 700.799804688 l 1
 144.799804688 660.799804688 l 1
 935.599609375 660.799804688 l 1
889.200195312 -133.599609375 m 1
 889.200195312 728 l 1
 929.599609375 728 l 1
 929.599609375 -133.599609375 l 1
 889.200195312 -133.599609375 l 1
889.200195312 -113.200195312 m 1
 929.200195312 -113.200195312 l 1
 929.200195312 708 l 1
 889.200195312 708 l 1
 889.200195312 -113.200195312 l 1
72 -161.200195312 m 1
 72 700.799804688 l 1
 903.599609375 700.799804688 l 1
 903.599609375 -161.200195312 l 1
 72 -161.200195312 l 1
897.60546875 666.931640625 m 1
 868.798828125 694.672851562 l 1
 77.5947265625 -126.931640625 l 1
 106.401367188 -154.671875 l 1
 897.60546875 666.931640625 l 1
-20 -220.400390625 m 1
 -20 820 l 1
 1020.40039062 820 l 1
 1020.40039062 -220.400390625 l 1
 -20 -220.400390625 l 1
0 -220 m 0
 1000 -220 1000 -220 1000 -220 c 2
 1011.03808594 -220 1020 -211.038085938 1020 -200 c 2
 1020 800 l 2
 1020 811.038085938 1011.03808594 820 1000 820 c 2
 0 820 l 2
 -11.0380859375 820 -20 811.038085938 -20 800 c 2
 -20 -200 l 2
 -20 -211.038085938 -11.0380859375 -220 0 -220 c 0
980 -180 m 1
 20 -180 l 1
 20 780 l 1
 980 780 l 1
 980 -180 l 1
EndSplineSet
EndChar

StartChar: uniE01E
Encoding: 57374 57374 30
Width: 1000
Flags: H
LayerCount: 2
Fore
SplineSet
125.200195312 626.400390625 m 1
 125.200195312 666.799804688 l 1
 850.799804688 666.799804688 l 1
 850.799804688 626.400390625 l 1
 125.200195312 626.400390625 l 1
830.400390625 626.799804688 m 1
 830.400390625 666.799804688 l 1
 145.200195312 666.799804688 l 1
 145.200195312 626.799804688 l 1
 830.400390625 626.799804688 l 1
788.400390625 -96.7998046875 m 1
 788.400390625 691.200195312 l 1
 828.799804688 691.200195312 l 1
 828.799804688 -96.7998046875 l 1
 788.400390625 -96.7998046875 l 1
788.400390625 -76.400390625 m 1
 828.400390625 -76.400390625 l 1
 828.400390625 671.200195312 l 1
 788.400390625 671.200195312 l 1
 788.400390625 -76.400390625 l 1
147.599609375 -96.7998046875 m 1
 147.599609375 691.200195312 l 1
 188 691.200195312 l 1
 188 -96.7998046875 l 1
 147.599609375 -96.7998046875 l 1
147.599609375 -76.400390625 m 1
 187.599609375 -76.400390625 l 1
 187.599609375 671.200195312 l 1
 147.599609375 671.200195312 l 1
 147.599609375 -76.400390625 l 1
-20 -220.400390625 m 1
 -20 820 l 1
 1020.40039062 820 l 1
 1020.40039062 -220.400390625 l 1
 -20 -220.400390625 l 1
1000 820 m 0
 0 820 0 820 0 820 c 2
 -11.0380859375 820 -20 811.038085938 -20 800 c 2
 -20 -200 l 2
 -20 -211.038085938 -11.0380859375 -220 0 -220 c 2
 1000 -220 l 2
 1011.03808594 -220 1020 -211.038085938 1020 -200 c 2
 1020 800 l 2
 1020 811.038085938 1011.03808594 820 1000 820 c 0
20 780 m 1
 980 780 l 1
 980 -180 l 1
 20 -180 l 1
 20 780 l 1
EndSplineSet
EndChar

StartChar: uniE01F
Encoding: 57375 57375 31
Width: 1000
Flags: H
LayerCount: 2
Fore
SplineSet
124.799804688 283.599609375 m 1
 124.799804688 324 l 1
 852 324 l 1
 852 283.599609375 l 1
 124.799804688 283.599609375 l 1
831.599609375 284 m 1
 831.599609375 324 l 1
 144.799804688 324 l 1
 144.799804688 284 l 1
 831.599609375 284 l 1
789.200195312 -97.2001953125 m 1
 789.200195312 691.200195312 l 1
 829.599609375 691.200195312 l 1
 829.599609375 -97.2001953125 l 1
 789.200195312 -97.2001953125 l 1
789.200195312 -76.7998046875 m 1
 829.200195312 -76.7998046875 l 1
 829.200195312 671.200195312 l 1
 789.200195312 671.200195312 l 1
 789.200195312 -76.7998046875 l 1
147.200195312 -97.2001953125 m 1
 147.200195312 691.200195312 l 1
 187.599609375 691.200195312 l 1
 187.599609375 -97.2001953125 l 1
 147.200195312 -97.2001953125 l 1
147.200195312 -76.7998046875 m 1
 187.200195312 -76.7998046875 l 1
 187.200195312 671.200195312 l 1
 147.200195312 671.200195312 l 1
 147.200195312 -76.7998046875 l 1
-20 -220.400390625 m 1
 -20 820 l 1
 1020.40039062 820 l 1
 1020.40039062 -220.400390625 l 1
 -20 -220.400390625 l 1
1000 820 m 0
 0 820 0 820 0 820 c 2
 -11.0380859375 820 -20 811.038085938 -20 800 c 2
 -20 -200 l 2
 -20 -211.038085938 -11.0380859375 -220 0 -220 c 2
 1000 -220 l 2
 1011.03808594 -220 1020 -211.038085938 1020 -200 c 2
 1020 800 l 2
 1020 811.038085938 1011.03808594 820 1000 820 c 0
20 780 m 1
 980 780 l 1
 980 -180 l 1
 20 -180 l 1
 20 780 l 1
EndSplineSet
EndChar

StartChar: uniE020
Encoding: 57376 57376 32
Width: 1000
Flags: H
LayerCount: 2
Fore
SplineSet
115.599609375 -136.799804688 m 1
 115.599609375 725.599609375 l 1
 156 725.599609375 l 1
 156 -136.799804688 l 1
 115.599609375 -136.799804688 l 1
115.599609375 -116.400390625 m 1
 155.599609375 -116.400390625 l 1
 155.599609375 705.599609375 l 1
 115.599609375 705.599609375 l 1
 115.599609375 -116.400390625 l 1
90.400390625 -109.599609375 m 1
 90.400390625 -69.2001953125 l 1
 921.599609375 -69.2001953125 l 1
 921.599609375 -109.599609375 l 1
 90.400390625 -109.599609375 l 1
901.200195312 -109.200195312 m 1
 901.200195312 -69.2001953125 l 1
 110.400390625 -69.2001953125 l 1
 110.400390625 -109.200195312 l 1
 901.200195312 -109.200195312 l 1
89.2001953125 658 m 1
 89.2001953125 698.400390625 l 1
 920.400390625 698.400390625 l 1
 920.400390625 658 l 1
 89.2001953125 658 l 1
900 658.400390625 m 1
 900 698.400390625 l 1
 109.200195312 698.400390625 l 1
 109.200195312 658.400390625 l 1
 900 658.400390625 l 1
-20 -220.400390625 m 1
 -20 820 l 1
 1020.40039062 820 l 1
 1020.40039062 -220.400390625 l 1
 -20 -220.400390625 l 1
0 -220 m 0
 1000 -220 1000 -220 1000 -220 c 2
 1011.03808594 -220 1020 -211.038085938 1020 -200 c 2
 1020 800 l 2
 1020 811.038085938 1011.03808594 820 1000 820 c 2
 0 820 l 2
 -11.0380859375 820 -20 811.038085938 -20 800 c 2
 -20 -200 l 2
 -20 -211.038085938 -11.0380859375 -220 0 -220 c 0
980 -180 m 1
 20 -180 l 1
 20 780 l 1
 980 780 l 1
 980 -180 l 1
EndSplineSet
EndChar

StartChar: uniE021
Encoding: 57377 57377 33
Width: 1000
Flags: H
LayerCount: 2
Fore
SplineSet
-19.2001953125 -220.400390625 m 1
 -19.2001953125 820 l 1
 1020.40039062 820 l 1
 1020.40039062 -220.400390625 l 1
 -19.2001953125 -220.400390625 l 1
1000 -220 m 2
 1011.03808594 -220 1020 -211.038085938 1020 -200 c 2
 1020 800 l 2
 1020 811.038085938 1011.03808594 820 1000 820 c 2
 0.7998046875 820 l 2
 -10.23828125 820 -19.2001953125 811.038085938 -19.2001953125 800 c 2
 -19.2001953125 -200 l 2
 -19.2001953125 -211.038085938 -10.23828125 -220 0.7998046875 -220 c 2
 1000 -220 l 2
980 -180 m 1
 20.7998046875 -180 l 1
 20.7998046875 780 l 1
 980 780 l 1
 980 -180 l 1
-20 279.200195312 m 1
 -20 319.599609375 l 1
 1020 319.599609375 l 1
 1020 279.200195312 l 1
 -20 279.200195312 l 1
999.599609375 279.599609375 m 1
 999.599609375 319.599609375 l 1
 0 319.599609375 l 1
 0 279.599609375 l 1
 999.599609375 279.599609375 l 1
480 -220.400390625 m 1
 480 820 l 1
 520.400390625 820 l 1
 520.400390625 -220.400390625 l 1
 480 -220.400390625 l 1
480 -200 m 1
 520 -200 l 1
 520 800 l 1
 480 800 l 1
 480 -200 l 1
EndSplineSet
EndChar

StartChar: uniE022
Encoding: 57378 57378 34
Width: 1000
Flags: H
LayerCount: 2
Fore
SplineSet
91.599609375 613.200195312 m 1
 91.599609375 653.599609375 l 1
 933.200195312 653.599609375 l 1
 933.200195312 613.200195312 l 1
 91.599609375 613.200195312 l 1
912.799804688 613.599609375 m 1
 912.799804688 653.599609375 l 1
 111.599609375 653.599609375 l 1
 111.599609375 613.599609375 l 1
 912.799804688 613.599609375 l 1
91.599609375 -35.599609375 m 1
 91.599609375 4.7998046875 l 1
 933.200195312 4.7998046875 l 1
 933.200195312 -35.599609375 l 1
 91.599609375 -35.599609375 l 1
912.799804688 -35.2001953125 m 1
 912.799804688 4.7998046875 l 1
 111.599609375 4.7998046875 l 1
 111.599609375 -35.2001953125 l 1
 912.799804688 -35.2001953125 l 1
91.599609375 -36 m 1
 91.599609375 654 l 1
 933.200195312 654 l 1
 933.200195312 -36 l 1
 91.599609375 -36 l 1
900.221679688 -31.1455078125 m 1
 925.400390625 -0.072265625 l 1
 124.176757812 649.145507812 l 1
 98.9990234375 618.072265625 l 1
 900.221679688 -31.1455078125 l 1
91.599609375 -36 m 1
 91.599609375 653.599609375 l 1
 933.200195312 653.599609375 l 1
 933.200195312 -36 l 1
 91.599609375 -36 l 1
99.0224609375 -0.0537109375 m 1
 124.176757812 -31.1455078125 l 1
 925.376953125 618.053710938 l 1
 900.221679688 649.145507812 l 1
 99.0224609375 -0.0537109375 l 1
-20 -220.400390625 m 1
 -20 820 l 1
 1020.40039062 820 l 1
 1020.40039062 -220.400390625 l 1
 -20 -220.400390625 l 1
1000 820 m 0
 0 820 0 820 0 820 c 2
 -11.0380859375 820 -20 811.038085938 -20 800 c 2
 -20 -200 l 2
 -20 -211.038085938 -11.0380859375 -220 0 -220 c 2
 1000 -220 l 2
 1011.03808594 -220 1020 -211.038085938 1020 -200 c 2
 1020 800 l 2
 1020 811.038085938 1011.03808594 820 1000 820 c 0
20 780 m 1
 980 780 l 1
 980 -180 l 1
 20 -180 l 1
 20 780 l 1
EndSplineSet
EndChar

StartChar: uniE025
Encoding: 57381 57381 35
Width: 1000
Flags: H
LayerCount: 2
Fore
SplineSet
89.2001953125 -98 m 1
 89.2001953125 -57.599609375 l 1
 920.400390625 -57.599609375 l 1
 920.400390625 -98 l 1
 89.2001953125 -98 l 1
900 -97.599609375 m 1
 900 -57.599609375 l 1
 109.200195312 -57.599609375 l 1
 109.200195312 -97.599609375 l 1
 900 -97.599609375 l 1
853.599609375 -125.200195312 m 1
 853.599609375 736.400390625 l 1
 894 736.400390625 l 1
 894 -125.200195312 l 1
 853.599609375 -125.200195312 l 1
893.599609375 716.400390625 m 1
 853.599609375 716.400390625 l 1
 853.599609375 -104.799804688 l 1
 893.599609375 -104.799804688 l 1
 893.599609375 716.400390625 l 1
-20 -220.400390625 m 1
 -20 820 l 1
 1020.40039062 820 l 1
 1020.40039062 -220.400390625 l 1
 -20 -220.400390625 l 1
0 -220 m 0
 1000 -220 1000 -220 1000 -220 c 2
 1011.03808594 -220 1020 -211.038085938 1020 -200 c 2
 1020 800 l 2
 1020 811.038085938 1011.03808594 820 1000 820 c 2
 0 820 l 2
 -11.0380859375 820 -20 811.038085938 -20 800 c 2
 -20 -200 l 2
 -20 -211.038085938 -11.0380859375 -220 0 -220 c 0
980 -180 m 1
 20 -180 l 1
 20 780 l 1
 980 780 l 1
 980 -180 l 1
EndSplineSet
EndChar

StartChar: uniE026
Encoding: 57382 57382 36
Width: 1000
Flags: H
LayerCount: 2
Fore
SplineSet
73.2001953125 -119.599609375 m 1
 73.2001953125 -79.2001953125 l 1
 904.400390625 -79.2001953125 l 1
 904.400390625 -119.599609375 l 1
 73.2001953125 -119.599609375 l 1
884 -119.200195312 m 1
 884 -79.2001953125 l 1
 93.2001953125 -79.2001953125 l 1
 93.2001953125 -119.200195312 l 1
 884 -119.200195312 l 1
837.599609375 -146.799804688 m 1
 837.599609375 715.599609375 l 1
 878 715.599609375 l 1
 878 -146.799804688 l 1
 837.599609375 -146.799804688 l 1
877.599609375 695.599609375 m 1
 837.599609375 695.599609375 l 1
 837.599609375 -126.400390625 l 1
 877.599609375 -126.400390625 l 1
 877.599609375 695.599609375 l 1
99.2001953125 -147.200195312 m 1
 99.2001953125 715.200195312 l 1
 139.599609375 715.200195312 l 1
 139.599609375 -147.200195312 l 1
 99.2001953125 -147.200195312 l 1
139.200195312 695.200195312 m 1
 99.2001953125 695.200195312 l 1
 99.2001953125 -126.799804688 l 1
 139.200195312 -126.799804688 l 1
 139.200195312 695.200195312 l 1
214.799804688 -13.599609375 m 1
 214.799804688 630 l 1
 809.599609375 630 l 1
 809.599609375 -13.599609375 l 1
 214.799804688 -13.599609375 l 1
512 590 m 0
 653.9296875 590 769.200195312 463.463867188 769.200195312 308.400390625 c 0
 769.200195312 154.537109375 655.288085938 26.7998046875 512 26.7998046875 c 0
 370.0703125 26.7998046875 254.799804688 153.336914062 254.799804688 308.400390625 c 0
 254.799804688 462.25 368.700195312 590 512 590 c 0
512 -13.2001953125 m 0
 676.919921875 -13.2001953125 809.200195312 131.848632812 809.200195312 308.400390625 c 0
 809.200195312 485.810546875 675.918945312 630 512 630 c 0
 347.081054688 630 214.799804688 484.951171875 214.799804688 308.400390625 c 0
 214.799804688 130.990234375 348.081054688 -13.2001953125 512 -13.2001953125 c 0
-20 -220.400390625 m 1
 -20 820 l 1
 1020.40039062 820 l 1
 1020.40039062 -220.400390625 l 1
 -20 -220.400390625 l 1
0 -220 m 0
 1000 -220 1000 -220 1000 -220 c 2
 1011.03808594 -220 1020 -211.038085938 1020 -200 c 2
 1020 800 l 2
 1020 811.038085938 1011.03808594 820 1000 820 c 2
 0 820 l 2
 -11.0380859375 820 -20 811.038085938 -20 800 c 2
 -20 -200 l 2
 -20 -211.038085938 -11.0380859375 -220 0 -220 c 0
980 -180 m 1
 20 -180 l 1
 20 780 l 1
 980 780 l 1
 980 -180 l 1
EndSplineSet
EndChar

StartChar: uniE027
Encoding: 57383 57383 37
Width: 1000
Flags: H
LayerCount: 2
Fore
SplineSet
70.400390625 -32.7998046875 m 1
 70.400390625 7.599609375 l 1
 912 7.599609375 l 1
 912 -32.7998046875 l 1
 70.400390625 -32.7998046875 l 1
90.400390625 7.599609375 m 1
 90.400390625 -32.400390625 l 1
 891.599609375 -32.400390625 l 1
 891.599609375 7.599609375 l 1
 90.400390625 7.599609375 l 1
70.400390625 616 m 1
 70.400390625 656.400390625 l 1
 912 656.400390625 l 1
 912 616 l 1
 70.400390625 616 l 1
90.400390625 656.400390625 m 1
 90.400390625 616.400390625 l 1
 891.599609375 616.400390625 l 1
 891.599609375 656.400390625 l 1
 90.400390625 656.400390625 l 1
216 27.2001953125 m 1
 216 592.400390625 l 1
 760.799804688 592.400390625 l 1
 760.799804688 27.2001953125 l 1
 216 27.2001953125 l 1
720.400390625 310 m 0
 720.400390625 175.37890625 615.794921875 67.599609375 488.400390625 67.599609375 c 0
 359.633789062 67.599609375 256 176.1875 256 310 c 0
 256 444.635742188 360.616210938 552.400390625 488 552.400390625 c 0
 616.78515625 552.400390625 720.400390625 443.791992188 720.400390625 310 c 0
488.400390625 27.599609375 m 0
 637.852539062 27.599609375 760.400390625 153.241210938 760.400390625 310 c 0
 760.400390625 465.995117188 638.779296875 592.400390625 488 592.400390625 c 0
 338.556640625 592.400390625 216 466.771484375 216 310 c 0
 216 153.979492188 337.643554688 27.599609375 488.400390625 27.599609375 c 0
-20 -220.400390625 m 1
 -20 820 l 1
 1020.40039062 820 l 1
 1020.40039062 -220.400390625 l 1
 -20 -220.400390625 l 1
1000 820 m 0
 0 820 0 820 0 820 c 2
 -11.0380859375 820 -20 811.038085938 -20 800 c 2
 -20 -200 l 2
 -20 -211.038085938 -11.0380859375 -220 0 -220 c 2
 1000 -220 l 2
 1011.03808594 -220 1020 -211.038085938 1020 -200 c 2
 1020 800 l 2
 1020 811.038085938 1011.03808594 820 1000 820 c 0
20 780 m 1
 980 780 l 1
 980 -180 l 1
 20 -180 l 1
 20 780 l 1
70.7998046875 699.599609375 m 1
 70.7998046875 740 l 1
 912.400390625 740 l 1
 912.400390625 699.599609375 l 1
 70.7998046875 699.599609375 l 1
90.7998046875 740 m 1
 90.7998046875 700 l 1
 892 700 l 1
 892 740 l 1
 90.7998046875 740 l 1
EndSplineSet
EndChar

StartChar: uniE028
Encoding: 57384 57384 38
Width: 1000
Flags: HO
LayerCount: 2
Fore
SplineSet
90 -119.200195312 m 1
 90 -78.7998046875 l 1
 921.200195312 -78.7998046875 l 1
 921.200195312 -119.200195312 l 1
 90 -119.200195312 l 1
900.799804688 -118.799804688 m 1
 900.799804688 -78.7998046875 l 1
 110 -78.7998046875 l 1
 110 -118.799804688 l 1
 900.799804688 -118.799804688 l 1
854.799804688 -145.599609375 m 1
 854.799804688 716 l 1
 895.200195312 716 l 1
 895.200195312 -145.599609375 l 1
 854.799804688 -145.599609375 l 1
894.799804688 696 m 1
 854.799804688 696 l 1
 854.799804688 -125.200195312 l 1
 894.799804688 -125.200195312 l 1
 894.799804688 696 l 1
116.400390625 -146.400390625 m 1
 116.400390625 715.200195312 l 1
 156.799804688 715.200195312 l 1
 156.799804688 -146.400390625 l 1
 116.400390625 -146.400390625 l 1
156.400390625 695.200195312 m 1
 116.400390625 695.200195312 l 1
 116.400390625 -126 l 1
 156.400390625 -126 l 1
 156.400390625 695.200195312 l 1
-20 -220.400390625 m 1
 -20 820 l 1
 1020.40039062 820 l 1
 1020.40039062 -220.400390625 l 1
 -20 -220.400390625 l 1
0 -220 m 0
 1000 -220 1000 -220 1000 -220 c 2
 1011.03808594 -220 1020 -211.038085938 1020 -200 c 2
 1020 800 l 2
 1020 811.038085938 1011.03808594 820 1000 820 c 2
 0 820 l 2
 -11.0380859375 820 -20 811.038085938 -20 800 c 2
 -20 -200 l 2
 -20 -211.038085938 -11.0380859375 -220 0 -220 c 0
980 -180 m 1
 20 -180 l 1
 20 780 l 1
 980 780 l 1
 980 -180 l 1
EndSplineSet
EndChar
